<?xml version="1.0" standalone="no"?>
<!DOCTYPE svg PUBLIC "-//W3C//DTD SVG 20010904//EN"
 "http://www.w3.org/TR/2001/REC-SVG-20010904/DTD/svg10.dtd">
<svg version="1.0" xmlns="http://www.w3.org/2000/svg"
 width="2286.000000pt" height="2286.000000pt" viewBox="0 0 2286.000000 2286.000000"
 preserveAspectRatio="xMidYMid meet">
<metadata>
Created by potrace 1.11, written by Peter Selinger 2001-2013
</metadata>
<g transform="translate(0.000000,2286.000000) scale(0.100000,-0.100000)"
fill="#000000" stroke="none">
<path d="M0 11430 l0 -11430 11430 0 11430 0 0 7300 c0 4015 -2 7300 -5 7300
-41 0 -142 -94 -645 -596 l-555 -554 -940 0 -939 0 -308 -307 c-226 -226 -308
-313 -306 -328 3 -20 13 -20 458 -25 391 -4 451 -7 430 -19 -14 -7 -279 -267
-590 -577 l-565 -564 -470 0 -469 0 -303 -303 c-223 -221 -303 -307 -301 -322
3 -20 13 -20 1688 -25 l1685 -5 -49 -26 c-35 -18 -207 -184 -601 -577 l-552
-552 -2507 0 c-2465 0 -2509 0 -2552 -19 -24 -11 -44 -17 -44 -13 0 4 88 95
195 202 l194 195 3 578 c3 570 3 577 -17 577 -24 0 -1682 -1653 -1726 -1720
l-29 -45 1 1015 c0 962 -1 1015 -18 1019 -12 2 -280 -261 -907 -890 l-889
-894 -1130 -5 c-892 -4 -1131 -8 -1135 -17 -19 -58 -22 60 -22 740 l1 752 -21
3 c-17 3 -322 -296 -1418 -1392 -768 -767 -1451 -1449 -1518 -1515 l-120 -121
-960 0 c-934 0 -960 -1 -1003 -20 -24 -11 -46 -20 -50 -20 -3 0 391 397 876
883 l882 882 2 670 c1 606 -1 670 -15 673 -21 4 -21 4 -830 -805 -696 -697
-878 -881 -908 -924 -17 -23 -17 28 -17 986 0 940 -1 1010 -17 1013 -11 3
-308 -287 -910 -890 l-894 -893 -964 -3 c-814 -2 -969 -5 -992 -17 -15 -8 -32
-11 -37 -8 -5 3 1077 1092 2404 2419 1328 1328 2416 2409 2417 2404 2 -6 -6
-31 -17 -55 -21 -45 -21 -48 -19 -1007 3 -911 4 -963 21 -960 9 2 17 -3 17
-10 0 -7 464 451 1030 1017 612 612 1030 1023 1030 1012 0 -10 -9 -35 -20 -57
-20 -39 -20 -56 -18 -1637 3 -1515 4 -1598 21 -1597 10 1 17 -5 17 -15 0 -9
752 736 1670 1654 919 918 1670 1663 1670 1654 0 -9 -9 -36 -20 -60 -19 -43
-19 -75 -20 -1882 0 -1680 1 -1838 16 -1844 12 -4 524 502 1920 1898 1047
1047 1904 1897 1904 1889 -1 -8 -9 -33 -20 -55 -19 -39 -19 -72 -20 -1008 0
-965 0 -968 20 -957 17 9 20 8 20 -7 0 -11 420 402 1030 1012 612 612 1030
1023 1030 1012 0 -10 -9 -35 -20 -57 -20 -39 -20 -59 -20 -1545 0 -1498 0
-1505 20 -1505 11 0 20 -6 20 -12 0 -7 703 690 1563 1550 l1562 1562 1813 0
1812 0 0 4125 0 4125 -11430 0 -11430 0 0 -11430z m7850 -1905 l0 -75 70 0 70
0 0 -65 0 -65 220 0 220 0 0 65 0 65 65 0 65 0 0 75 0 75 75 0 75 0 0 -75 0
-75 -75 0 -75 0 0 -65 0 -65 75 0 75 0 0 -75 0 -75 70 0 70 0 0 -70 0 -70 70
0 70 0 0 -210 0 -210 -70 0 -70 0 0 140 0 140 -70 0 -70 0 0 -140 0 -140 -75
0 -75 0 0 -75 0 -75 -140 0 -140 0 0 75 0 75 140 0 140 0 0 70 0 70 -355 0
-355 0 0 -70 0 -70 145 0 145 0 0 -75 0 -75 -145 0 -145 0 0 75 0 75 -70 0
-70 0 0 140 0 140 -70 0 -70 0 0 -140 0 -140 -70 0 -70 0 0 210 0 210 70 0 70
0 0 70 0 70 70 0 70 0 0 75 0 75 70 0 70 0 0 65 0 65 -70 0 -70 0 0 75 0 75
70 0 70 0 0 -75z m9110 -168 l0 -224 44 42 c54 53 118 75 211 75 139 0 238
-76 286 -218 18 -53 21 -81 17 -170 -5 -136 -34 -208 -114 -282 -70 -63 -130
-83 -232 -78 -88 4 -135 23 -184 74 -28 29 -34 31 -40 16 -4 -9 -7 -32 -7 -49
l-1 -33 -62 0 -61 0 6 128 c4 70 7 310 7 535 l0 407 65 0 65 0 0 -223z m-6666
158 c32 -9 62 -18 67 -20 4 -3 -1 -32 -12 -64 l-20 -59 -52 21 c-68 26 -198
29 -244 4 -77 -41 -101 -143 -49 -211 25 -33 52 -49 216 -124 94 -43 141 -81
175 -143 57 -106 32 -254 -57 -335 -72 -65 -116 -78 -258 -79 -126 0 -207 16
-253 49 -18 14 -18 15 18 113 3 9 19 5 57 -12 144 -66 309 -46 361 43 24 41
25 117 3 161 -21 39 -85 81 -179 117 -106 40 -184 98 -221 164 -67 118 -26
268 95 342 78 48 237 63 353 33z m4109 -8 c233 -77 339 -244 324 -510 -8 -153
-65 -289 -155 -368 -49 -44 -164 -96 -247 -114 -70 -15 -386 -22 -419 -9 -14
5 -16 59 -16 505 l0 499 23 5 c53 11 92 13 262 10 131 -2 193 -7 228 -18z
m-1068 -267 l95 0 0 -55 0 -55 -95 0 -95 0 0 -192 c1 -294 12 -324 119 -321
l59 2 4 -47 c3 -26 1 -51 -4 -57 -5 -5 -45 -12 -88 -13 -109 -5 -158 18 -194
91 -26 50 -26 53 -26 293 l0 243 -57 3 -58 3 -3 53 -3 52 60 0 61 0 0 70 0 69
63 19 62 20 3 -89 3 -89 94 0z m2530 0 l95 0 0 -55 0 -55 -95 0 -95 0 0 -192
c1 -294 12 -324 119 -321 l59 2 4 -47 c3 -26 1 -51 -4 -57 -5 -5 -45 -12 -88
-13 -109 -5 -158 18 -194 91 -26 50 -26 53 -26 293 l0 243 -57 3 -58 3 -3 53
-3 52 60 0 61 0 0 70 0 69 63 19 62 20 3 -89 3 -89 94 0z m-2955 -56 l0 -64
-43 0 c-56 0 -105 -27 -142 -79 l-30 -43 -3 -244 -3 -244 -70 0 -69 0 0 238
c0 130 -3 295 -7 365 l-6 128 64 -3 64 -3 3 -58 3 -57 32 42 c37 48 84 79 136
88 65 11 71 5 71 -66z m-1882 44 c27 -12 57 -38 75 -64 l31 -44 33 39 c50 59
122 91 202 91 107 -1 181 -47 225 -140 19 -42 21 -65 24 -322 l3 -278 -65 0
-66 0 0 203 c0 293 -11 347 -81 399 -67 51 -168 22 -217 -60 l-27 -47 -3 -247
-4 -248 -64 0 -64 0 0 213 c0 246 -9 315 -45 363 -55 72 -154 68 -219 -7 -48
-57 -56 -105 -56 -354 l0 -215 -65 0 -65 0 0 253 c0 138 -3 303 -7 365 l-6
112 66 0 67 0 0 -55 0 -55 38 42 c20 22 55 49 77 59 57 26 156 25 213 -3z
m1195 -11 c54 -32 104 -108 111 -172 3 -22 7 -151 10 -287 l5 -248 -58 0 c-64
0 -71 6 -71 60 l0 29 -25 -25 c-89 -89 -279 -100 -363 -21 -62 58 -82 178 -43
256 50 97 153 146 349 167 l62 7 0 35 c0 46 -32 96 -73 113 -43 19 -151 16
-207 -5 -79 -30 -75 -31 -89 15 -16 52 -9 59 74 88 49 18 79 21 165 19 94 -3
110 -6 153 -31z m3060 0 c54 -32 104 -108 111 -172 3 -22 7 -151 10 -287 l5
-248 -58 0 c-64 0 -71 6 -71 60 l0 29 -25 -25 c-89 -89 -279 -100 -363 -21
-62 58 -82 178 -43 256 50 97 153 146 349 167 l62 7 0 35 c0 46 -32 96 -73
113 -43 19 -151 16 -207 -5 -79 -30 -75 -31 -89 15 -16 52 -9 59 74 88 49 18
79 21 165 19 94 -3 110 -6 153 -31z m1220 0 c54 -32 104 -108 111 -172 3 -22
7 -151 10 -287 l5 -248 -58 0 c-64 0 -71 6 -71 60 l0 29 -25 -25 c-89 -89
-279 -100 -363 -21 -62 58 -82 178 -43 256 50 97 153 146 349 167 l62 7 0 35
c0 46 -32 96 -73 113 -43 19 -151 16 -207 -5 -79 -30 -75 -31 -89 15 -16 52
-9 59 74 88 49 18 79 21 165 19 94 -3 110 -6 153 -31z m1570 0 c54 -32 104
-108 111 -172 3 -22 7 -151 10 -287 l5 -248 -58 0 c-64 0 -71 6 -71 60 l0 29
-25 -25 c-89 -89 -279 -100 -363 -21 -62 58 -82 178 -43 256 50 97 153 146
349 167 l62 7 0 35 c0 46 -32 96 -73 113 -43 19 -151 16 -207 -5 -79 -30 -75
-31 -89 15 -16 52 -9 59 74 88 49 18 79 21 165 19 94 -3 110 -6 153 -31z m667
23 c20 -5 44 -16 55 -24 17 -12 17 -17 5 -60 -7 -25 -14 -46 -16 -46 -2 0 -33
10 -68 21 -85 28 -144 21 -181 -22 -53 -64 -18 -119 105 -169 147 -59 199
-118 200 -224 0 -94 -54 -167 -151 -201 -57 -21 -183 -21 -251 -1 -82 24 -83
26 -68 80 7 26 16 49 20 51 4 3 24 -2 44 -10 139 -58 268 -25 268 69 0 20 -7
47 -15 59 -15 24 -19 26 -147 85 -88 40 -144 89 -156 138 -4 14 -4 50 -2 80 6
69 43 118 118 157 45 22 66 27 129 27 42 0 92 -5 111 -10z m661 -5 c66 -23
114 -67 150 -140 26 -53 32 -80 37 -155 l5 -90 -258 0 -258 0 7 -47 c10 -72
51 -132 115 -165 45 -24 65 -28 130 -28 42 0 103 7 134 15 32 8 59 15 61 15 3
0 26 -83 26 -94 0 -2 -24 -13 -52 -23 -41 -14 -83 -18 -183 -18 -129 0 -130 0
-193 34 -73 40 -105 74 -141 151 -24 50 -26 66 -26 175 0 142 20 203 87 280
62 70 141 105 239 105 41 0 96 -7 120 -15z"/>
<path d="M7850 9100 l0 -70 70 0 70 0 0 70 0 70 -70 0 -70 0 0 -70z"/>
<path d="M8420 9100 l0 -70 70 0 70 0 0 70 0 70 -70 0 -70 0 0 -70z"/>
<path d="M17090 9124 c-46 -20 -77 -50 -103 -99 -18 -34 -21 -57 -21 -155 0
-129 8 -155 68 -207 101 -90 253 -60 315 61 51 98 38 271 -26 347 -54 64 -154
87 -233 53z"/>
<path d="M14042 9413 l-22 -4 2 -397 3 -397 95 -3 c300 -9 460 135 462 414 0
108 -18 181 -64 250 -34 50 -111 104 -178 125 -37 12 -259 21 -298 12z"/>
<path d="M12098 8870 c-126 -15 -188 -65 -188 -152 0 -41 5 -54 28 -78 52 -52
147 -48 213 7 43 37 59 80 59 163 0 80 11 74 -112 60z"/>
<path d="M15158 8870 c-126 -15 -188 -65 -188 -152 0 -41 5 -54 28 -78 52 -52
147 -48 213 7 43 37 59 80 59 163 0 80 11 74 -112 60z"/>
<path d="M16378 8870 c-126 -15 -188 -65 -188 -152 0 -41 5 -54 28 -78 52 -52
147 -48 213 7 43 37 59 80 59 163 0 80 11 74 -112 60z"/>
<path d="M17948 8870 c-126 -15 -188 -65 -188 -152 0 -41 5 -54 28 -78 52 -52
147 -48 213 7 43 37 59 80 59 163 0 80 11 74 -112 60z"/>
<path d="M19210 9139 c-53 -22 -107 -92 -124 -161 l-6 -28 189 0 188 0 -8 45
c-19 100 -68 147 -158 152 -31 2 -67 -2 -81 -8z"/>
<path d="M19321 14411 c-8 -5 -764 -758 -1680 -1674 -1664 -1662 -1666 -1664
-1714 -1671 l-47 -7 0 1482 c0 1127 -2 1485 -11 1496 -36 43 -31 48 -1013
-933 l-941 -942 -48 -6 -47 -6 0 936 c0 688 -3 940 -11 950 -37 45 22 101
-1878 -1802 -1134 -1136 -1820 -1817 -1834 -1818 -12 -2 -30 -7 -41 -11 -12
-5 -21 -3 -27 6 -5 8 -9 788 -9 1810 0 1761 0 1796 -19 1813 -12 11 -27 15
-39 12 -10 -4 -363 -348 -783 -766 -420 -418 -768 -764 -774 -769 -5 -6 -373
-374 -817 -818 -444 -444 -819 -812 -833 -817 -16 -6 -35 -6 -52 0 l-28 9 -2
1570 -3 1570 -20 14 c-18 12 -25 12 -51 0 -16 -8 -447 -431 -957 -941 -511
-510 -940 -932 -956 -937 -15 -6 -36 -11 -47 -11 -19 0 -19 17 -19 938 0 716
-3 941 -12 950 -21 21 -66 13 -102 -19 -48 -42 -3907 -3905 -3917 -3921 -17
-26 -9 -49 24 -68 31 -19 52 -20 672 -20 l640 0 1021 1021 c936 935 1023 1020
1050 1017 l29 -3 3 -934 c1 -670 5 -938 13 -948 35 -42 33 -44 874 798 734
735 814 811 847 816 l38 6 0 -938 0 -937 -661 -661 c-363 -364 -671 -673 -684
-688 -15 -19 -21 -36 -18 -53 9 -43 53 -46 721 -46 l617 0 1641 1641 c1507
1507 1644 1641 1675 1642 l34 2 5 -858 c4 -748 7 -859 20 -867 9 -6 395 -10
995 -10 l980 0 1021 1021 c934 934 1023 1020 1050 1017 l29 -3 3 -934 c2 -852
4 -936 19 -953 9 -10 23 -18 32 -18 8 0 384 369 836 820 747 747 824 820 853
820 l32 0 0 -857 c0 -472 4 -864 8 -871 5 -7 19 -15 33 -17 13 -3 25 -9 27
-15 3 -7 726 -10 2185 -10 l2182 0 337 338 c316 316 337 339 340 375 1 25 -3
41 -12 47 -9 6 -645 10 -1580 12 -861 1 -1578 2 -1595 2 -23 1 -31 6 -33 23
-2 12 1 30 6 39 5 8 226 234 492 500 l484 484 471 0 470 0 364 364 c265 265
362 368 359 382 -3 18 -21 19 -448 22 l-445 2 525 525 525 525 940 0 940 0
337 338 c336 336 337 337 334 376 -2 21 -10 42 -17 47 -19 12 -2890 11 -2908
0z"/>
</g>
</svg>
